<?xml version="1.0" encoding="UTF-8" standalone="no"?>
<!-- Created with Inkscape (http://www.inkscape.org/) -->

<svg
   xmlns:dc="http://purl.org/dc/elements/1.1/"
   xmlns:cc="http://creativecommons.org/ns#"
   xmlns:rdf="http://www.w3.org/1999/02/22-rdf-syntax-ns#"
   xmlns:svg="http://www.w3.org/2000/svg"
   xmlns="http://www.w3.org/2000/svg"
   xmlns:sodipodi="http://sodipodi.sourceforge.net/DTD/sodipodi-0.dtd"
   xmlns:inkscape="http://www.inkscape.org/namespaces/inkscape"
   width="139.71094"
   height="64.96875"
   id="svg2"
   version="1.1"
   inkscape:version="0.47 r22583"
   sodipodi:docname="Hong_Kong_Chinese_Characters.svg">
  <defs
     id="defs4">
    <inkscape:perspective
       sodipodi:type="inkscape:persp3d"
       inkscape:vp_x="0 : 32.484375 : 1"
       inkscape:vp_y="0 : 1000 : 0"
       inkscape:vp_z="139.71094 : 32.484375 : 1"
       inkscape:persp3d-origin="69.855469 : 21.65625 : 1"
       id="perspective9" />
  </defs>
  <sodipodi:namedview
     id="base"
     pagecolor="#ffffff"
     bordercolor="#666666"
     borderopacity="1.0"
     inkscape:pageopacity="0.0"
     inkscape:pageshadow="2"
     inkscape:zoom="2.8"
     inkscape:cx="132.58371"
     inkscape:cy="1.8671684"
     inkscape:document-units="px"
     inkscape:current-layer="text2816"
     showgrid="false"
     inkscape:window-width="1366"
     inkscape:window-height="706"
     inkscape:window-x="-8"
     inkscape:window-y="-8"
     inkscape:window-maximized="1" />
  <metadata
     id="metadata7">
    <rdf:RDF>
      <cc:Work
         rdf:about="">
        <dc:format>image/svg+xml</dc:format>
        <dc:type
           rdf:resource="http://purl.org/dc/dcmitype/StillImage" />
      </cc:Work>
    </rdf:RDF>
  </metadata>
  <g
     inkscape:label="Layer 1"
     inkscape:groupmode="layer"
     id="layer1"
     transform="translate(-196.53571,-486.08984)">
    <g
       style="font-size:72px;font-style:normal;font-weight:normal;fill:#f0f0f0;fill-opacity:1;stroke:none;font-family:Bitstream Vera Sans"
       id="text2816">
      <path
         d="m 251.09821,490.23828 c -4.21881,0.75005 -8.55474,1.42974 -13.00782,2.03906 -2.15629,0.23443 -4.31254,0.44536 -6.46875,0.63282 l 0,7.52343 21.72657,0 3.375,-4.00781 c 1.78118,1.35942 3.44524,2.69536 4.99218,4.00781 0.42181,0.23442 0.63275,0.51567 0.63282,0.84375 -7e-5,0.70317 -0.39851,1.05473 -1.19532,1.05469 l -29.53125,0 0,3.02344 c 4.26559,0.93753 8.46089,2.01566 12.58594,3.23437 4.54682,1.50003 7.94526,2.7891 10.19531,3.86719 2.29682,1.12503 3.84369,2.06253 4.64063,2.8125 0.89056,0.7969 1.61712,1.57034 2.17969,2.32031 0.32805,0.6094 0.49212,1.24221 0.49218,1.89844 -6e-5,0.9844 -0.37506,1.47658 -1.125,1.47656 -0.46881,2e-5 -1.10162,-0.25779 -1.89843,-0.77343 -0.79694,-0.37498 -1.78132,-0.96092 -2.95313,-1.75782 -1.82818,-1.31247 -3.56256,-2.41403 -5.20312,-3.30468 -2.06256,-1.12498 -4.54693,-2.29685 -7.45313,-3.51563 -2.85942,-1.35934 -6.67973,-2.92965 -11.46094,-4.71094 l 0,9.77344 c -3e-5,1.12502 0.0703,1.85159 0.21094,2.17969 0.0937,0.7969 0.14059,1.50002 0.14063,2.10937 -4e-5,0.9844 -0.3516,1.61721 -1.05469,1.89844 l 13.99219,0 2.25,-3.09375 c 1.64057,1.07815 2.85931,2.08596 3.65625,3.02344 0.32806,0.32814 0.49213,0.63283 0.49218,0.91406 -5e-5,0.46877 -0.8438,1.21877 -2.53125,2.25 l 0,13.00781 c -5e-5,3.46875 0.0703,5.74219 0.21094,6.82032 0.0468,1.35937 0.0703,2.46093 0.0703,3.30468 -5e-5,0.60937 -0.23443,1.12499 -0.70312,1.54688 -0.60943,0.28124 -1.10162,0.42186 -1.47656,0.42187 -0.98443,-10e-6 -1.47662,-0.30469 -1.47657,-0.91406 l 0,-2.8125 -30.58593,0 0,2.8125 c -2e-5,0.60937 -0.49221,0.91405 -1.47657,0.91406 -0.37502,-10e-6 -0.8672,-0.14063 -1.47656,-0.42187 -0.46877,-0.42189 -0.70314,-0.93751 -0.70312,-1.54688 -2e-5,-0.84375 0.0469,-1.94531 0.14062,-3.30468 0.28123,-1.07813 0.42186,-3.35157 0.42188,-6.82032 l 0,-14.34375 c -2e-5,-1.8281 -0.18752,-3.44529 -0.5625,-4.85156 l 4.14843,3.09375 13.07813,0 c -0.28129,-0.23436 -0.42191,-0.49217 -0.42188,-0.77344 -3e-5,-1.03123 0.0468,-2.32029 0.14063,-3.86718 0.0937,-1.6406 0.14059,-3.09373 0.14062,-4.35938 l 0,-9.5625 c -1.87503,2.10941 -3.82034,3.93753 -5.83593,5.48438 -3.28128,2.62502 -6.84378,5.01565 -10.6875,7.17187 -3.65627,2.06252 -8.46095,4.12502 -14.41407,6.1875 l -0.77343,-1.05469 c 5.62499,-2.3906 10.14842,-4.57029 13.57031,-6.53906 2.99998,-1.73435 5.81248,-3.74997 8.4375,-6.04687 2.53122,-2.0156 4.92184,-4.40622 7.17187,-7.17188 l -19.61718,0 c -3.32814,0.0469 -5.57814,0.14066 -6.75,0.28125 l -1.47657,-3.09375 c 2.0625,0.60942 4.80468,0.9141 8.22657,0.91406 l 22.14843,0 0,-7.24218 c -2.2969,0.18754 -4.59378,0.35161 -6.89062,0.49218 -4.68752,0.37505 -10.64064,0.6563 -17.85938,0.84375 l -0.21093,-1.47656 c 3.84373,-0.14058 7.92185,-0.39839 12.23437,-0.77344 4.12498,-0.2812 8.10935,-0.70307 11.95313,-1.26562 4.12496,-0.56245 7.66402,-1.14839 10.61718,-1.75781 2.85933,-0.4687 5.24995,-1.0312 7.17188,-1.6875 1.5937,-0.4687 3.04682,-0.96089 4.35937,-1.47657 1.68745,0.98443 3.18744,2.01568 4.5,3.09375 0.18744,0.14068 0.28119,0.30474 0.28125,0.49219 -6e-5,0.56255 -0.25787,0.8438 -0.77343,0.84375 -0.70319,5e-5 -1.54694,-0.0937 -2.53125,-0.28125 z m -36.28125,55.19531 30.58593,0 0,-9.5625 -30.58593,0 z m 0,-11.53125 30.58593,0 0,-9 -30.58593,0 z"
         style=""
         id="path2816" />
      <path
         d="m 275.00446,487.70703 c 2.85936,1.2188 5.13279,2.46099 6.82031,3.72656 1.49998,0.98443 2.60154,1.9688 3.30469,2.95313 0.56248,0.65629 0.84373,1.33598 0.84375,2.03906 -2e-5,1.50004 -0.56252,2.25004 -1.6875,2.25 -0.4219,4e-5 -0.82033,-0.0937 -1.19532,-0.28125 -0.37501,-0.18746 -0.77345,-0.67964 -1.19531,-1.47656 -0.93751,-1.78121 -1.94533,-3.23433 -3.02344,-4.35938 -1.17188,-1.2187 -2.74219,-2.43745 -4.71093,-3.65625 z m -5.13282,17.15625 c 3.09375,1.21879 5.50781,2.43753 7.24219,3.65625 1.54686,1.03128 2.71874,2.03909 3.51563,3.02344 0.51561,0.70315 0.77342,1.38284 0.77343,2.03906 -1e-5,1.5469 -0.56251,2.32034 -1.6875,2.32031 -0.42188,3e-5 -0.84376,-0.11716 -1.26562,-0.35156 -0.32814,-0.18747 -0.70314,-0.67966 -1.125,-1.47656 -1.03126,-1.78122 -2.10939,-3.21091 -3.23438,-4.28906 -1.21875,-1.2656 -2.88281,-2.50778 -4.99218,-3.72657 z m 13.00782,16.94531 0.5625,1.05469 c -1.26565,3.51564 -2.69533,7.19532 -4.28907,11.03906 -1.54688,4.07813 -3.21094,8.01563 -4.99218,11.8125 -0.28126,2.25 -0.58595,3.375 -0.91407,3.375 -0.32813,0 -1.71094,-1.71094 -4.14843,-5.13281 2.34374,-2.71875 4.82811,-6.30468 7.45312,-10.75781 2.67186,-4.35936 4.78124,-8.15624 6.32813,-11.39063 z m 5.27343,-24.75 c 2.06248,0.56255 4.78123,0.8438 8.15625,0.84375 l 2.60157,0 0,-5.41406 c -4e-5,-2.48432 -0.0938,-4.35932 -0.28125,-5.625 2.62496,0.32818 4.82808,0.8438 6.60937,1.54688 0.60934,0.2813 0.91402,0.60942 0.91406,0.98437 -4e-5,0.42193 -0.30472,0.72661 -0.91406,0.91406 -0.84379,0.4688 -1.82816,0.75005 -2.95312,0.84375 l 0,6.75 12.30468,0 0,-5.41406 c -5e-5,-2.48432 -0.0938,-4.35932 -0.28125,-5.625 2.67183,0.32818 4.89839,0.8438 6.67969,1.54688 0.6562,0.2813 0.98432,0.60942 0.98438,0.98437 -6e-5,0.42193 -0.32818,0.72661 -0.98438,0.91406 -0.8438,0.4688 -1.85161,0.75005 -3.02344,0.84375 l 0,6.75 5.34375,0 3.375,-3.65625 c 1.73432,1.2188 3.32806,2.43755 4.78125,3.65625 0.42181,0.23442 0.63275,0.49223 0.63282,0.77344 -7e-5,0.79692 -0.28132,1.19535 -0.84375,1.19531 l -13.28907,0 0,11.74219 8.71875,0 3.375,-3.9375 c 1.78119,1.35941 3.46869,2.67191 5.0625,3.9375 0.37493,0.28128 0.56243,0.58597 0.5625,0.91406 -7e-5,0.70316 -0.35163,1.05472 -1.05468,1.05469 l -16.73438,0 c 1.0312,1.40628 2.10932,2.64846 3.23438,3.72656 1.40619,1.3594 3.02338,2.6719 4.85156,3.9375 1.78119,1.1719 3.56243,2.20315 5.34375,3.09375 1.78118,0.75002 3.4218,1.28908 4.92187,1.61719 l 0,1.19531 c -2.53131,2e-5 -4.19538,0.72658 -4.99218,2.17969 -1.64069,-0.74999 -3.14069,-1.66405 -4.5,-2.74219 -1.45319,-1.12498 -2.71881,-2.34373 -3.79688,-3.65625 -1.2188,-1.12498 -2.39068,-2.41404 -3.51562,-3.86718 -1.17193,-1.45311 -2.41412,-3.28123 -3.72657,-5.48438 l -13.64062,0 c -0.46879,1.3594 -1.03129,2.57815 -1.6875,3.65625 -0.70316,1.26565 -1.54691,2.60158 -2.53125,4.00781 l 2.10937,1.05469 16.38282,0 1.89843,-2.25 c 2.48432,1.50002 3.72651,2.53127 3.72657,3.09375 -6e-5,0.51564 -0.65631,1.19533 -1.96875,2.03906 l 0,8.08594 c 0.56244,0.42188 1.07807,0.82032 1.54687,1.19531 0.2812,0.14064 0.42182,0.3047 0.42188,0.49219 -6e-5,0.79688 -0.211,1.19532 -0.63282,1.19531 l -21.9375,0 0,7.24219 c -3e-5,0.5625 0.14059,1.07812 0.42188,1.54688 0.42184,0.42187 1.03121,0.74999 1.82812,0.98437 1.12497,0.375 2.62497,0.5625 4.5,0.5625 l 15.1875,0 c 1.45307,0 2.83588,-0.1875 4.14844,-0.5625 0.84369,-0.23438 1.42963,-0.72657 1.75781,-1.47656 0.65619,-1.35938 1.40619,-4.33594 2.25,-8.92969 l 1.47657,0.35156 c -0.42194,3.37501 -0.63288,5.71875 -0.63282,7.03125 -6e-5,0.84375 0.39838,1.66406 1.19532,2.46094 0.70305,0.60937 1.05462,1.17187 1.05468,1.6875 -6e-5,0.32812 -0.14069,0.65624 -0.42187,0.98438 -0.37507,0.32811 -1.03132,0.60936 -1.96875,0.84375 -0.89069,0.23436 -2.13288,0.39843 -3.72656,0.49218 -1.73444,0.14062 -3.44537,0.21093 -5.13282,0.21094 l -15.1875,0 c -1.21879,-10e-6 -2.48441,-0.11719 -3.79687,-0.35156 -0.98441,-0.0938 -1.92191,-0.28126 -2.8125,-0.5625 -0.84378,-0.28126 -1.54691,-0.6797 -2.10938,-1.19531 -0.46878,-0.42188 -0.7969,-0.93751 -0.98437,-1.54688 -0.23441,-0.60938 -0.35159,-1.35938 -0.35156,-2.25 l 0,-20.46094 c -0.75003,0.84377 -1.54691,1.64064 -2.39063,2.39063 -1.40628,1.26564 -2.8594,2.48439 -4.35937,3.65625 -1.64065,1.07813 -3.70315,2.22657 -6.1875,3.44531 l -0.91407,-1.40625 c 2.24998,-1.17186 4.17186,-2.39061 5.76563,-3.65625 1.59372,-1.31248 3.11716,-2.78905 4.57031,-4.42969 1.54685,-1.78123 2.81247,-3.60935 3.79688,-5.48437 0.74996,-1.40623 1.38278,-2.78904 1.89843,-4.14844 l -6.39843,0 c -3.32815,0.0469 -5.60159,0.14065 -6.82032,0.28125 l -1.33593,-3.09375 c 2.0156,0.56253 4.73435,0.84378 8.15625,0.84375 l 7.03125,0 0,-11.74219 -2.60157,0 c -3.28127,0.0469 -5.50783,0.14067 -6.67968,0.28125 z m 14.13282,14.55469 12.30468,0 0,-11.74219 -12.30468,0 z m -2.88282,12.72656 0,9.84375 17.22657,0 0,-9.84375 z"
         style=""
         id="path2818" />
    </g>
  </g>
</svg>
